<svg width="1046" height="219" viewBox="0 0 1046 219" fill="none" xmlns="http://www.w3.org/2000/svg">
<g filter="url(#filter0_d_189_3753)">
<path d="M4.1 144L37.1 73.8C37.8333 75.2667 38.8333 77.3 40.1 79.9C41.3667 82.4333 42.8 85.4 44.4 88.8L71.2 144.1H64.3L59.8 134.6C58.4667 131.6 56.9333 128.3 55.2 124.7C53.4667 121.1 51.7 117.367 49.9 113.5H19.8C18.8 115.633 17.7 118.1 16.5 120.9C15.3667 123.7 14.3333 126.533 13.4 129.4C12.4667 132.2 11.8 134.633 11.4 136.7C11 138.7 10.8 140.267 10.8 141.4C10.8 142.333 10.9 143.2 11.1 144H4.1ZM49.3 112.4L34.8 81.7L20.3 112.4H49.3ZM46.5875 147.5C47.6542 148.3 48.8542 149.133 50.1875 150C51.4542 150.933 52.7875 151.733 54.1875 152.4C55.5875 153.133 57.0208 153.733 58.4875 154.2C59.9542 154.667 61.3875 154.9 62.7875 154.9C64.6542 154.9 66.3875 154.267 67.9875 153C69.5875 151.733 71.0208 150.067 72.2875 148C73.6208 146 74.8208 143.733 75.8875 141.2C77.0208 138.667 77.9875 136.167 78.7875 133.7C79.6542 131.233 80.4208 128.9 81.0875 126.7C81.7542 124.5 82.3208 122.7 82.7875 121.3L88.5875 123.4C87.9875 125.067 87.3542 126.733 86.6875 128.4C86.0875 130 85.5208 131.667 84.9875 133.4C85.7875 135 86.8208 136.433 88.0875 137.7C89.3542 138.967 90.7542 140.033 92.2875 140.9C93.8208 141.767 95.4542 142.433 97.1875 142.9C98.9875 143.367 100.754 143.6 102.488 143.6C105.688 143.6 108.488 142.967 110.888 141.7C113.354 140.367 115.388 138.633 116.988 136.5C118.654 134.3 119.888 131.833 120.688 129.1C121.554 126.3 121.988 123.433 121.988 120.5C121.988 117.367 121.488 114.4 120.488 111.6C119.554 108.733 118.188 106.233 116.388 104.1C114.588 101.967 112.354 100.3 109.688 99.1C107.088 97.8333 104.154 97.2 100.888 97.2C97.8208 97.2 94.9542 97.8667 92.2875 99.2C89.6208 100.467 87.2542 102.167 85.1875 104.3C83.1208 106.433 81.3875 108.867 79.9875 111.6C78.5875 114.267 77.6208 117 77.0875 119.8V97.9C77.0875 94.6333 77.3875 91.5 77.9875 88.5C78.6542 85.5 79.7208 82.9 81.1875 80.7C82.7208 78.4333 84.7208 76.6333 87.1875 75.3C89.7208 73.9667 92.8875 73.3 96.6875 73.3C98.0875 73.3 99.4542 73.4 100.788 73.6V80C99.3208 79.0667 97.6875 78.1667 95.8875 77.3C94.0875 76.3667 92.2875 75.9 90.4875 75.9C88.4875 75.9 86.9875 76.6333 85.9875 78.1C84.9875 79.5 84.2875 81.2 83.8875 83.2C83.4875 85.2 83.2542 87.2667 83.1875 89.4C83.1875 91.4667 83.1875 93.1667 83.1875 94.5V104.6C84.2542 102.933 85.5208 101.533 86.9875 100.4C88.5208 99.2667 90.1542 98.3667 91.8875 97.7C93.6875 96.9667 95.5208 96.4333 97.3875 96.1C99.3208 95.7667 101.221 95.6 103.088 95.6C106.288 95.6 109.388 96.1667 112.388 97.3C115.388 98.4333 118.054 100.033 120.388 102.1C122.788 104.1 124.688 106.533 126.088 109.4C127.488 112.2 128.188 115.267 128.188 118.6C128.188 122.933 127.521 126.733 126.188 130C124.921 133.267 123.088 136 120.688 138.2C118.288 140.4 115.388 142.067 111.988 143.2C108.588 144.333 104.788 144.9 100.587 144.9C97.5208 144.9 94.4208 144.367 91.2875 143.3C88.1542 142.167 85.4875 140.5 83.2875 138.3C81.6208 144.167 78.7875 148.7 74.7875 151.9C70.7875 155.167 65.6542 156.8 59.3875 156.8C55.1208 156.8 50.8542 156.033 46.5875 154.5V147.5ZM134.244 120C134.244 116.6 134.944 113.4 136.344 110.4C137.344 108.2 138.644 106.2 140.244 104.4C141.91 102.533 143.81 100.933 145.944 99.6C148.077 98.2667 150.41 97.2333 152.944 96.5C155.477 95.7667 158.144 95.4 160.944 95.4C164.677 95.4 168.21 96.0667 171.544 97.4C174.944 98.6667 177.91 100.4 180.444 102.6C182.977 104.8 184.977 107.4 186.444 110.4C187.977 113.4 188.744 116.6 188.744 120C188.744 123.4 188.044 126.6 186.644 129.6C185.244 132.6 183.344 135.233 180.944 137.5C178.544 139.7 175.71 141.467 172.444 142.8C169.177 144.067 165.677 144.7 161.944 144.7C158.21 144.7 154.644 144.067 151.244 142.8C147.91 141.467 144.977 139.7 142.444 137.5C139.91 135.233 137.91 132.6 136.444 129.6C134.977 126.6 134.244 123.4 134.244 120ZM138.844 122.2C138.91 125.267 139.644 128.367 141.044 131.5C142.644 134.967 145.077 137.667 148.344 139.6C151.61 141.533 155.244 142.5 159.244 142.5C163.044 142.5 166.744 141.6 170.344 139.8C174.61 137.6 177.944 134.567 180.344 130.7C182.81 126.767 184.044 122.567 184.044 118.1C184.044 118.033 184.01 117.2 183.944 115.6C183.944 114 183.277 111.667 181.944 108.6C180.41 105.133 177.944 102.467 174.544 100.6C171.21 98.6667 167.544 97.7 163.544 97.7C161.677 97.7 159.777 97.9333 157.844 98.4C155.977 98.8 154.144 99.4667 152.344 100.4C147.944 102.667 144.577 105.733 142.244 109.6C139.977 113.4 138.844 117.433 138.844 121.7V122.2ZM202.498 96.4V127.8C202.498 130.2 202.898 132.3 203.698 134.1C204.564 135.833 205.698 137.267 207.098 138.4C208.498 139.533 210.064 140.4 211.798 141C213.598 141.533 215.464 141.8 217.398 141.8C219.398 141.8 221.364 141.5 223.298 140.9C225.298 140.233 227.064 139.3 228.598 138.1C230.198 136.9 231.464 135.433 232.398 133.7C233.331 131.9 233.798 129.833 233.798 127.5V96.4H239.998V144H233.798V134.4C233.131 135.733 232.164 137 230.898 138.2C229.698 139.4 228.298 140.467 226.698 141.4C225.164 142.267 223.464 142.967 221.598 143.5C219.731 144.033 217.864 144.3 215.998 144.3C213.731 144.3 211.431 144.033 209.098 143.5C206.764 142.9 204.631 141.933 202.698 140.6C200.831 139.267 199.298 137.533 198.098 135.4C196.898 133.2 196.298 130.5 196.298 127.3V96.4H202.498ZM251.709 97.5V85.6H257.809V97.5H266.609V98.6H257.809V136C257.809 138.933 258.242 140.867 259.109 141.8C259.975 142.667 260.942 143.1 262.009 143.1C262.409 143.1 262.742 143.067 263.009 143C263.342 142.933 263.642 142.867 263.909 142.8L264.709 142.5L265.209 143.1C265.075 143.3 264.542 143.533 263.609 143.8C262.675 144 261.542 144.1 260.209 144.1C259.275 144.1 258.309 144 257.309 143.8C256.309 143.6 255.375 143.233 254.509 142.7C253.709 142.167 253.042 141.433 252.509 140.5C251.975 139.567 251.709 138.367 251.709 136.9V98.6H247.709V97.5H251.709ZM328.967 39.3H349.517C359.517 39.3 367.617 40.3 373.817 42.3C380.017 44.2 384.817 46.65 388.217 49.65C391.617 52.55 393.867 55.75 394.967 59.25C396.167 62.75 396.767 66.05 396.767 69.15C396.767 70.95 396.617 73 396.317 75.3C396.017 77.5 395.317 79.75 394.217 82.05C393.117 84.35 391.467 86.6 389.267 88.8C387.067 91 384.017 92.95 380.117 94.65C376.317 96.35 371.567 97.75 365.867 98.85C360.167 99.85 353.267 100.35 345.167 100.35H338.267V144H328.967V39.3ZM338.267 98.7H345.167C354.567 98.7 362.067 97.75 367.667 95.85C373.367 93.85 377.717 91.4 380.717 88.5C383.817 85.6 385.817 82.4 386.717 78.9C387.717 75.4 388.217 72.15 388.217 69.15C388.217 64.35 387.117 60.2 384.917 56.7C382.817 53.1 379.917 50.15 376.217 47.85C372.517 45.55 368.217 43.85 363.317 42.75C358.417 41.55 353.217 40.95 347.717 40.95H338.267V98.7ZM404.608 135.3C403.308 133.1 402.658 130.5 402.658 127.5C402.658 125.1 403.408 122.85 404.908 120.75C406.408 118.65 408.358 116.7 410.758 114.9C413.158 113 415.908 111.3 419.008 109.8C422.108 108.2 425.258 106.8 428.458 105.6C432.258 104.2 436.258 102.9 440.458 101.7C444.758 100.4 449.308 99.2 454.108 98.1C454.108 94 453.908 90.35 453.508 87.15C453.208 83.95 452.458 81.25 451.258 79.05C450.058 76.85 448.308 75.2 446.008 74.1C443.708 72.9 440.608 72.3 436.708 72.3C433.508 72.3 430.958 72.8 429.058 73.8C427.258 74.7 425.858 75.7 424.858 76.8C423.858 78.1 423.208 79.6 422.908 81.3H412.708C412.708 81.2 412.908 80.7 413.308 79.8C413.708 78.9 414.558 77.9 415.858 76.8C417.258 75.6 419.208 74.45 421.708 73.35C424.308 72.25 427.708 71.5 431.908 71.1C432.808 71 433.758 70.95 434.758 70.95C435.758 70.85 436.808 70.8 437.908 70.8C442.808 70.8 446.858 71.35 450.058 72.45C453.258 73.55 455.758 75.25 457.558 77.55C459.458 79.85 460.758 82.75 461.458 86.25C462.258 89.65 462.658 93.65 462.658 98.25L454.108 99.9C452.008 100.3 449.508 100.9 446.608 101.7C443.708 102.4 440.708 103.3 437.608 104.4C434.508 105.5 431.408 106.8 428.308 108.3C425.308 109.8 422.608 111.45 420.208 113.25C417.808 115.05 415.858 117.05 414.358 119.25C412.858 121.45 412.108 123.85 412.108 126.45C412.108 129.35 412.508 131.8 413.308 133.8C414.208 135.7 415.358 137.25 416.758 138.45C418.258 139.65 419.958 140.55 421.858 141.15C423.758 141.65 425.808 141.9 428.008 141.9C432.508 141.9 437.008 141.05 441.508 139.35C446.008 137.55 449.808 135.65 452.908 133.65C452.108 131.35 451.258 128.95 450.358 126.45C449.558 123.95 448.758 121.7 447.958 119.7L445.408 112.5L454.108 109.35L464.908 140.1C465.808 142.7 466.808 145.15 467.908 147.45C469.108 149.85 470.458 151.95 471.958 153.75C473.458 155.55 475.158 157 477.058 158.1C479.058 159.2 481.358 159.75 483.958 159.75C486.958 159.75 490.408 158.9 494.308 157.2C498.208 155.5 502.858 152.65 508.258 148.65V159.15C501.158 161.45 494.708 162.6 488.908 162.6C480.108 162.6 472.808 160.45 467.008 156.15C461.308 151.85 457.208 146.1 454.708 138.9L453.508 135.45C452.708 135.85 451.458 136.6 449.758 137.7C448.158 138.7 446.158 139.75 443.758 140.85C441.458 141.85 438.808 142.75 435.808 143.55C432.908 144.35 429.858 144.75 426.658 144.75C421.758 144.75 417.358 144 413.458 142.5C409.558 141 406.608 138.6 404.608 135.3ZM472.646 74.1H478.646V56.4H487.796V74.1H502.646C502.746 69.3 503.296 64.8 504.296 60.6C505.396 56.4 507.096 52.7 509.396 49.5C511.796 46.3 514.846 43.8 518.546 42C522.246 40.1 526.796 39.15 532.196 39.15H535.346C535.846 39.15 536.296 39.2 536.696 39.3C537.196 39.3 537.696 39.35 538.196 39.45V49.2C535.996 47.8 533.546 46.45 530.846 45.15C528.146 43.75 525.446 43.05 522.746 43.05C519.746 43.05 517.496 44.2 515.996 46.5C514.496 48.7 513.446 51.35 512.846 54.45C512.246 57.45 511.896 60.6 511.796 63.9C511.796 67.1 511.796 69.65 511.796 71.55V86.85C514.396 81.75 518.096 78.05 522.896 75.75C527.796 73.35 532.996 72.15 538.496 72.15C542.396 72.15 546.146 72.65 549.746 73.65C553.346 74.55 556.496 76 559.196 78C561.896 80 564.046 82.6 565.646 85.8C567.246 88.9 568.046 92.6 568.046 96.9V138C568.046 141.5 568.196 144.95 568.496 148.35C568.896 151.85 569.746 154.95 571.046 157.65C572.346 160.35 574.246 162.5 576.746 164.1C579.346 165.8 582.846 166.65 587.246 166.65C590.446 166.65 593.646 166.3 596.846 165.6C600.046 164.9 603.196 164 606.296 162.9L602.996 172.8C592.796 172.8 584.746 171.4 578.846 168.6C573.046 165.9 568.646 162.3 565.646 157.8C562.646 153.3 560.746 148.3 559.946 142.8C559.246 137.2 558.896 131.55 558.896 125.85C558.896 125.75 558.896 124.7 558.896 122.7C558.996 120.6 559.046 118.3 559.046 115.8C559.146 113.3 559.196 111 559.196 108.9C559.296 106.7 559.346 105.45 559.346 105.15C559.346 100.15 558.796 95.55 557.696 91.35C556.596 87.15 554.496 83.65 551.396 80.85C548.196 78.15 543.396 76.8 536.996 76.8C534.096 76.8 531.146 77.25 528.146 78.15C525.146 78.95 522.446 80.2 520.046 81.9C517.646 83.6 515.646 85.7 514.046 88.2C512.546 90.7 511.796 93.6 511.796 96.9V144H502.646V142.8C502.046 143 501.196 143.2 500.096 143.4C499.096 143.5 497.996 143.6 496.796 143.7C495.696 143.8 494.646 143.9 493.646 144C492.646 144 491.846 144 491.246 144C487.746 144 484.746 143.2 482.246 141.6C479.846 140 478.646 137.25 478.646 133.35V75.75H472.646V74.1ZM487.796 132C487.796 133.1 487.846 134.25 487.946 135.45C488.146 136.65 488.496 137.8 488.996 138.9C489.496 139.9 490.146 140.75 490.946 141.45C491.846 142.15 492.996 142.5 494.396 142.5C495.896 142.5 497.446 142.4 499.046 142.2C500.746 142 501.946 141.75 502.646 141.45V75.75H487.796V132ZM584.139 39.3C586.139 39.3 587.989 39.85 589.689 40.95C591.489 42.05 592.839 43.55 593.739 45.45L633.489 135.15L646.989 104.7C648.789 100.6 650.589 96.5 652.389 92.4C654.289 88.2 656.039 84.25 657.639 80.55C659.339 76.75 660.839 73.35 662.139 70.35C663.439 67.25 664.489 64.75 665.289 62.85C667.989 69.15 670.939 76 674.139 83.4C677.439 90.7 680.589 97.75 683.589 104.55C686.689 111.25 689.389 117.25 691.689 122.55C694.089 127.75 695.739 131.4 696.639 133.5C696.839 133.7 696.939 133.9 696.939 134.1C697.039 134.3 697.139 134.5 697.239 134.7C697.239 134.9 697.289 135.05 697.389 135.15L707.589 112.05C709.089 108.75 710.639 105.25 712.239 101.55C713.939 97.85 715.639 94.1 717.339 90.3C719.039 86.4 720.689 82.55 722.289 78.75C723.989 74.95 725.589 71.3 727.089 67.8C728.489 64.8 729.339 62.6 729.639 61.2C729.939 59.8 730.089 58.85 730.089 58.35C730.089 58.25 730.039 58.1 729.939 57.9C729.939 57.7 729.939 57.55 729.939 57.45C729.939 55.35 729.639 53.6 729.039 52.2C728.239 50.5 727.089 49.2 725.589 48.3C725.889 48 726.239 47.35 726.639 46.35C727.039 45.85 727.389 45.25 727.689 44.55C728.089 43.85 728.489 43.2 728.889 42.6C729.189 42.1 729.439 41.65 729.639 41.25C729.839 40.85 730.039 40.5 730.239 40.2L730.689 39.15C732.489 39.65 733.939 40.8 735.039 42.6C735.839 44 736.239 46 736.239 48.6V49.2C736.239 49.9 736.189 50.5 736.089 51C736.089 52.3 734.939 55.4 732.639 60.3C730.939 64.1 729.089 68.2 727.089 72.6C725.089 77 723.089 81.5 721.089 86.1L714.939 100.05C713.839 102.35 712.789 104.65 711.789 106.95C710.889 109.15 709.939 111.35 708.939 113.55L695.589 144H691.539C689.939 140.5 688.389 137 686.889 133.5C685.389 130 683.839 126.55 682.239 123.15C680.939 120.25 679.589 117.25 678.189 114.15C676.889 110.95 675.539 107.85 674.139 104.85C672.839 101.75 671.539 98.75 670.239 95.85C668.939 92.85 667.739 90.15 666.639 87.75C665.239 84.75 664.089 82.25 663.189 80.25C662.289 78.15 661.689 76.8 661.389 76.2L631.689 144H627.639L609.789 104.1C607.389 98.7 604.939 93.25 602.439 87.75C600.039 82.15 597.689 76.8 595.389 71.7C593.189 66.6 591.089 61.95 589.089 57.75C587.189 53.45 585.589 49.9 584.289 47.1C583.489 45.2 582.189 43.7 580.389 42.6C578.689 41.5 576.789 40.95 574.689 40.95V39.3H584.139ZM723.79 127.5C723.79 124.5 724.74 121.8 726.64 119.4C728.64 117 731.14 114.85 734.14 112.95C737.24 110.95 740.69 109.2 744.49 107.7C748.39 106.2 752.24 104.85 756.04 103.65C759.84 102.45 763.39 101.4 766.69 100.5C770.09 99.6 772.89 98.8 775.09 98.1C775.09 94.6 774.99 91.25 774.79 88.05C774.59 84.85 773.94 82.05 772.84 79.65C771.84 77.25 770.14 75.35 767.74 73.95C765.34 72.45 761.99 71.7 757.69 71.7C754.69 71.7 751.79 72.4 748.99 73.8C746.19 75.1 744.49 77.4 743.89 80.7H733.84C734.44 78.6 735.74 76.85 737.74 75.45C739.84 74.05 742.19 73 744.79 72.3C747.39 71.5 749.99 70.95 752.59 70.65C755.19 70.35 757.34 70.2 759.04 70.2C763.94 70.2 767.99 70.85 771.19 72.15C774.39 73.35 776.89 75.15 778.69 77.55C780.59 79.95 781.89 82.9 782.59 86.4C783.39 89.9 783.79 93.9 783.79 98.4C781.49 98.7 778.64 99.2 775.24 99.9C771.94 100.6 768.39 101.5 764.59 102.6C760.89 103.7 757.14 105 753.34 106.5C749.64 108 746.29 109.75 743.29 111.75C740.29 113.75 737.84 116 735.94 118.5C734.14 120.9 733.24 123.55 733.24 126.45C733.24 131.55 734.59 135.4 737.29 138C740.09 140.6 744.04 141.9 749.14 141.9C753.44 141.9 757.74 141.15 762.04 139.65C766.44 138.05 770.44 136.1 774.04 133.8L766.54 112.65L775.24 109.5C775.74 110.7 776.54 112.85 777.64 115.95C778.74 118.95 780.04 122.4 781.54 126.3C783.14 130.1 784.84 134.1 786.64 138.3C788.54 142.4 790.44 146.15 792.34 149.55C794.34 153.05 796.34 155.9 798.34 158.1C800.34 160.3 802.24 161.4 804.04 161.4C805.84 161.4 807.54 160.6 809.14 159C810.74 157.4 812.19 155.5 813.49 153.3C814.89 151.1 816.09 148.85 817.09 146.55C818.09 144.35 818.84 142.55 819.34 141.15C814.54 129.05 809.44 117.3 804.04 105.9C798.74 94.4 793.39 82.75 787.99 70.95H797.29L823.99 130.8C824.59 129.3 825.39 127.4 826.39 125.1C827.49 122.8 828.69 120.3 829.99 117.6C831.29 114.8 832.54 111.95 833.74 109.05C835.04 106.15 836.24 103.35 837.34 100.65C838.44 97.85 839.29 95.35 839.89 93.15C840.59 90.85 840.94 89 840.94 87.6C840.94 86.2 840.64 84.75 840.04 83.25C839.44 81.75 838.49 80.6 837.19 79.8L842.74 70.95C844.14 71.65 845.14 72.7 845.74 74.1C846.34 75.5 846.64 76.95 846.64 78.45C846.64 80.25 846.19 82.65 845.29 85.65C844.49 88.55 843.39 91.75 841.99 95.25C840.59 98.65 839.04 102.25 837.34 106.05C835.74 109.85 834.09 113.5 832.39 117C830.79 120.4 829.29 123.6 827.89 126.6C826.49 129.5 825.39 131.85 824.59 133.65C824.19 134.65 823.59 136.3 822.79 138.6C821.99 140.8 821.04 143.25 819.94 145.95C818.84 148.75 817.64 151.6 816.34 154.5C815.04 157.5 813.59 160.2 811.99 162.6C810.49 165 808.89 166.95 807.19 168.45C805.59 170.05 803.94 170.85 802.24 170.85C799.14 170.85 796.09 169.4 793.09 166.5C790.19 163.7 787.49 160.35 784.99 156.45C782.59 152.65 780.49 148.75 778.69 144.75C776.89 140.85 775.54 137.75 774.64 135.45C770.44 137.95 766.19 140.15 761.89 142.05C757.59 143.85 752.89 144.75 747.79 144.75C745.09 144.75 742.29 144.5 739.39 144C736.59 143.4 733.99 142.45 731.59 141.15C729.29 139.75 727.39 137.95 725.89 135.75C724.49 133.55 723.79 130.8 723.79 127.5Z" fill="white"/>
</g>
<defs>
<filter id="filter0_d_189_3753" x="0.0999756" y="39.15" width="850.54" height="141.65" filterUnits="userSpaceOnUse" color-interpolation-filters="sRGB">
<feFlood flood-opacity="0" result="BackgroundImageFix"/>
<feColorMatrix in="SourceAlpha" type="matrix" values="0 0 0 0 0 0 0 0 0 0 0 0 0 0 0 0 0 0 127 0" result="hardAlpha"/>
<feOffset dy="4"/>
<feGaussianBlur stdDeviation="2"/>
<feComposite in2="hardAlpha" operator="out"/>
<feColorMatrix type="matrix" values="0 0 0 0 0 0 0 0 0 0 0 0 0 0 0 0 0 0 0.25 0"/>
<feBlend mode="normal" in2="BackgroundImageFix" result="effect1_dropShadow_189_3753"/>
<feBlend mode="normal" in="SourceGraphic" in2="effect1_dropShadow_189_3753" result="shape"/>
</filter>
</defs>
</svg>
