<svg width="180" height="53" viewBox="0 0 180 53" fill="none" xmlns="http://www.w3.org/2000/svg">
<g filter="url(#filter0_d_93_4381)">
<path d="M3 0.0999993H9.85C13.1833 0.0999993 15.8833 0.433332 17.95 1.1C20.0167 1.73333 21.6167 2.55 22.75 3.55C23.8833 4.51667 24.6333 5.58333 25 6.75C25.4 7.91667 25.6 9.01667 25.6 10.05C25.6 10.65 25.55 11.3333 25.45 12.1C25.35 12.8333 25.1167 13.5833 24.75 14.35C24.3833 15.1167 23.8333 15.8667 23.1 16.6C22.3667 17.3333 21.35 17.9833 20.05 18.55C18.7833 19.1167 17.2 19.5833 15.3 19.95C13.4 20.2833 11.1 20.45 8.4 20.45H6.1V35H3V0.0999993ZM6.1 19.9H8.4C11.5333 19.9 14.0333 19.5833 15.9 18.95C17.8 18.2833 19.25 17.4667 20.25 16.5C21.2833 15.5333 21.95 14.4667 22.25 13.3C22.5833 12.1333 22.75 11.05 22.75 10.05C22.75 8.45 22.3833 7.06666 21.65 5.9C20.95 4.7 19.9833 3.71667 18.75 2.95C17.5167 2.18333 16.0833 1.61667 14.45 1.25C12.8167 0.849999 11.0833 0.649998 9.25 0.649998H6.1V19.9ZM28.2137 32.1C27.7803 31.3667 27.5637 30.5 27.5637 29.5C27.5637 28.7 27.8137 27.95 28.3137 27.25C28.8137 26.55 29.4637 25.9 30.2637 25.3C31.0637 24.6667 31.9803 24.1 33.0137 23.6C34.047 23.0667 35.097 22.6 36.1637 22.2C37.4303 21.7333 38.7637 21.3 40.1637 20.9C41.597 20.4667 43.1137 20.0667 44.7137 19.7C44.7137 18.3333 44.647 17.1167 44.5137 16.05C44.4137 14.9833 44.1637 14.0833 43.7637 13.35C43.3637 12.6167 42.7803 12.0667 42.0137 11.7C41.247 11.3 40.2137 11.1 38.9137 11.1C37.847 11.1 36.997 11.2667 36.3637 11.6C35.7637 11.9 35.297 12.2333 34.9637 12.6C34.6303 13.0333 34.4137 13.5333 34.3137 14.1H30.9137C30.9137 14.0667 30.9803 13.9 31.1137 13.6C31.247 13.3 31.5303 12.9667 31.9637 12.6C32.4303 12.2 33.0803 11.8167 33.9137 11.45C34.7803 11.0833 35.9137 10.8333 37.3137 10.7C37.6137 10.6667 37.9303 10.65 38.2637 10.65C38.597 10.6167 38.947 10.6 39.3137 10.6C40.947 10.6 42.297 10.7833 43.3637 11.15C44.4303 11.5167 45.2637 12.0833 45.8637 12.85C46.497 13.6167 46.9303 14.5833 47.1637 15.75C47.4303 16.8833 47.5637 18.2167 47.5637 19.75L44.7137 20.3C44.0137 20.4333 43.1803 20.6333 42.2137 20.9C41.247 21.1333 40.247 21.4333 39.2137 21.8C38.1803 22.1667 37.147 22.6 36.1137 23.1C35.1137 23.6 34.2137 24.15 33.4137 24.75C32.6137 25.35 31.9637 26.0167 31.4637 26.75C30.9637 27.4833 30.7137 28.2833 30.7137 29.15C30.7137 30.1167 30.847 30.9333 31.1137 31.6C31.4137 32.2333 31.797 32.75 32.2637 33.15C32.7637 33.55 33.3303 33.85 33.9637 34.05C34.597 34.2167 35.2803 34.3 36.0137 34.3C37.5137 34.3 39.0137 34.0167 40.5137 33.45C42.0137 32.85 43.2803 32.2167 44.3137 31.55C44.047 30.7833 43.7637 29.9833 43.4637 29.15C43.197 28.3167 42.9303 27.5667 42.6637 26.9L41.8137 24.5L44.7137 23.45L48.3137 33.7C48.6137 34.5667 48.947 35.3833 49.3137 36.15C49.7137 36.95 50.1637 37.65 50.6637 38.25C51.1637 38.85 51.7303 39.3333 52.3637 39.7C53.0303 40.0667 53.797 40.25 54.6637 40.25C55.6637 40.25 56.8137 39.9667 58.1137 39.4C59.4137 38.8333 60.9637 37.8833 62.7637 36.55V40.05C60.397 40.8167 58.247 41.2 56.3137 41.2C53.3803 41.2 50.947 40.4833 49.0137 39.05C47.1137 37.6167 45.747 35.7 44.9137 33.3L44.5137 32.15C44.247 32.2833 43.8303 32.5333 43.2637 32.9C42.7303 33.2333 42.0637 33.5833 41.2637 33.95C40.497 34.2833 39.6137 34.5833 38.6137 34.85C37.647 35.1167 36.6303 35.25 35.5637 35.25C33.9303 35.25 32.4637 35 31.1637 34.5C29.8637 34 28.8803 33.2 28.2137 32.1ZM50.893 11.7H52.893V5.8H55.943V11.7H60.893C60.9263 10.1 61.1096 8.6 61.443 7.2C61.8096 5.8 62.3763 4.56666 63.143 3.5C63.943 2.43333 64.9596 1.6 66.193 1C67.4263 0.366665 68.943 0.049997 70.743 0.049997H71.793C71.9596 0.049997 72.1096 0.0666644 72.243 0.0999993C72.4096 0.0999993 72.5763 0.116666 72.743 0.149999V3.4C72.0096 2.93333 71.193 2.48333 70.293 2.05C69.393 1.58333 68.493 1.35 67.593 1.35C66.593 1.35 65.843 1.73333 65.343 2.5C64.843 3.23333 64.493 4.11667 64.293 5.15C64.093 6.15 63.9763 7.2 63.943 8.3C63.943 9.36666 63.943 10.2167 63.943 10.85V15.95C64.8096 14.25 66.043 13.0167 67.643 12.25C69.2763 11.45 71.0096 11.05 72.843 11.05C74.143 11.05 75.393 11.2167 76.593 11.55C77.793 11.85 78.843 12.3333 79.743 13C80.643 13.6667 81.3596 14.5333 81.893 15.6C82.4263 16.6333 82.693 17.8667 82.693 19.3V33C82.693 34.1667 82.743 35.3167 82.843 36.45C82.9763 37.6167 83.2596 38.65 83.693 39.55C84.1263 40.45 84.7596 41.1667 85.593 41.7C86.4596 42.2667 87.6263 42.55 89.093 42.55C90.1596 42.55 91.2263 42.4333 92.293 42.2C93.3596 41.9667 94.4096 41.6667 95.443 41.3L94.343 44.6C90.943 44.6 88.2596 44.1333 86.293 43.2C84.3596 42.3 82.893 41.1 81.893 39.6C80.893 38.1 80.2596 36.4333 79.993 34.6C79.7596 32.7333 79.643 30.85 79.643 28.95C79.643 28.9167 79.643 28.5667 79.643 27.9C79.6763 27.2 79.693 26.4333 79.693 25.6C79.7263 24.7667 79.743 24 79.743 23.3C79.7763 22.5667 79.793 22.15 79.793 22.05C79.793 20.3833 79.6096 18.85 79.243 17.45C78.8763 16.05 78.1763 14.8833 77.143 13.95C76.0763 13.05 74.4763 12.6 72.343 12.6C71.3763 12.6 70.393 12.75 69.393 13.05C68.393 13.3167 67.493 13.7333 66.693 14.3C65.893 14.8667 65.2263 15.5667 64.693 16.4C64.193 17.2333 63.943 18.2 63.943 19.3V35H60.893V34.6C60.693 34.6667 60.4096 34.7333 60.043 34.8C59.7096 34.8333 59.343 34.8667 58.943 34.9C58.5763 34.9333 58.2263 34.9667 57.893 35C57.5596 35 57.293 35 57.093 35C55.9263 35 54.9263 34.7333 54.093 34.2C53.293 33.6667 52.893 32.75 52.893 31.45V12.25H50.893V11.7ZM55.943 31C55.943 31.3667 55.9596 31.75 55.993 32.15C56.0596 32.55 56.1763 32.9333 56.343 33.3C56.5096 33.6333 56.7263 33.9167 56.993 34.15C57.293 34.3833 57.6763 34.5 58.143 34.5C58.643 34.5 59.1596 34.4667 59.693 34.4C60.2596 34.3333 60.6596 34.25 60.893 34.15V12.25H55.943V31ZM88.0574 0.0999993C88.7241 0.0999993 89.3408 0.283332 89.9074 0.649998C90.5074 1.01666 90.9574 1.51666 91.2574 2.15L104.507 32.05L109.007 21.9C109.607 20.5333 110.207 19.1667 110.807 17.8C111.441 16.4 112.024 15.0833 112.557 13.85C113.124 12.5833 113.624 11.45 114.057 10.45C114.491 9.41667 114.841 8.58333 115.107 7.95C116.007 10.05 116.991 12.3333 118.057 14.8C119.157 17.2333 120.207 19.5833 121.207 21.85C122.241 24.0833 123.141 26.0833 123.907 27.85C124.707 29.5833 125.257 30.8 125.557 31.5C125.624 31.5667 125.657 31.6333 125.657 31.7C125.691 31.7667 125.724 31.8333 125.757 31.9C125.757 31.9667 125.774 32.0167 125.807 32.05L129.207 24.35C129.707 23.25 130.224 22.0833 130.757 20.85C131.324 19.6167 131.891 18.3667 132.457 17.1C133.024 15.8 133.574 14.5167 134.107 13.25C134.674 11.9833 135.207 10.7667 135.707 9.6C136.174 8.6 136.457 7.86666 136.557 7.4C136.657 6.93333 136.707 6.61666 136.707 6.45C136.707 6.41667 136.691 6.36667 136.657 6.3C136.657 6.23333 136.657 6.18333 136.657 6.15C136.657 5.45 136.557 4.86666 136.357 4.4C136.091 3.83333 135.707 3.4 135.207 3.1C135.307 3 135.424 2.78333 135.557 2.45C135.691 2.28333 135.807 2.08333 135.907 1.85C136.041 1.61667 136.174 1.4 136.307 1.2C136.407 1.03333 136.491 0.883331 136.557 0.749997C136.624 0.616665 136.691 0.499999 136.757 0.399998L136.907 0.049997C137.507 0.216665 137.991 0.599999 138.357 1.2C138.624 1.66666 138.757 2.33333 138.757 3.2V3.4C138.757 3.63333 138.741 3.83333 138.707 4C138.707 4.43333 138.324 5.46666 137.557 7.1C136.991 8.36666 136.374 9.73333 135.707 11.2C135.041 12.6667 134.374 14.1667 133.707 15.7L131.657 20.35C131.291 21.1167 130.941 21.8833 130.607 22.65C130.307 23.3833 129.991 24.1167 129.657 24.85L125.207 35H123.857C123.324 33.8333 122.807 32.6667 122.307 31.5C121.807 30.3333 121.291 29.1833 120.757 28.05C120.324 27.0833 119.874 26.0833 119.407 25.05C118.974 23.9833 118.524 22.95 118.057 21.95C117.624 20.9167 117.191 19.9167 116.757 18.95C116.324 17.95 115.924 17.05 115.557 16.25C115.091 15.25 114.707 14.4167 114.407 13.75C114.107 13.05 113.907 12.6 113.807 12.4L103.907 35H102.557L96.6074 21.7C95.8074 19.9 94.9908 18.0833 94.1574 16.25C93.3574 14.3833 92.5741 12.6 91.8074 10.9C91.0741 9.2 90.3741 7.65 89.7074 6.25C89.0741 4.81666 88.5408 3.63333 88.1074 2.7C87.8408 2.06667 87.4074 1.56666 86.8074 1.2C86.2408 0.833331 85.6074 0.649998 84.9074 0.649998V0.0999993H88.0574ZM134.608 29.5C134.608 28.5 134.924 27.6 135.558 26.8C136.224 26 137.058 25.2833 138.058 24.65C139.091 23.9833 140.241 23.4 141.508 22.9C142.808 22.4 144.091 21.95 145.358 21.55C146.624 21.15 147.808 20.8 148.908 20.5C150.041 20.2 150.974 19.9333 151.708 19.7C151.708 18.5333 151.674 17.4167 151.608 16.35C151.541 15.2833 151.324 14.35 150.958 13.55C150.624 12.75 150.058 12.1167 149.258 11.65C148.458 11.15 147.341 10.9 145.908 10.9C144.908 10.9 143.941 11.1333 143.008 11.6C142.074 12.0333 141.508 12.8 141.308 13.9H137.958C138.158 13.2 138.591 12.6167 139.258 12.15C139.958 11.6833 140.741 11.3333 141.608 11.1C142.474 10.8333 143.341 10.65 144.208 10.55C145.074 10.45 145.791 10.4 146.358 10.4C147.991 10.4 149.341 10.6167 150.408 11.05C151.474 11.45 152.308 12.05 152.908 12.85C153.541 13.65 153.974 14.6333 154.208 15.8C154.474 16.9667 154.608 18.3 154.608 19.8C153.841 19.9 152.891 20.0667 151.758 20.3C150.658 20.5333 149.474 20.8333 148.208 21.2C146.974 21.5667 145.724 22 144.458 22.5C143.224 23 142.108 23.5833 141.108 24.25C140.108 24.9167 139.291 25.6667 138.658 26.5C138.058 27.3 137.758 28.1833 137.758 29.15C137.758 30.85 138.208 32.1333 139.108 33C140.041 33.8667 141.358 34.3 143.058 34.3C144.491 34.3 145.924 34.05 147.358 33.55C148.824 33.0167 150.158 32.3667 151.358 31.6L148.858 24.55L151.758 23.5C151.924 23.9 152.191 24.6167 152.558 25.65C152.924 26.65 153.358 27.8 153.858 29.1C154.391 30.3667 154.958 31.7 155.558 33.1C156.191 34.4667 156.824 35.7167 157.458 36.85C158.124 38.0167 158.791 38.9667 159.458 39.7C160.124 40.4333 160.758 40.8 161.358 40.8C161.958 40.8 162.524 40.5333 163.058 40C163.591 39.4667 164.074 38.8333 164.508 38.1C164.974 37.3667 165.374 36.6167 165.708 35.85C166.041 35.1167 166.291 34.5167 166.458 34.05C164.858 30.0167 163.158 26.1 161.358 22.3C159.591 18.4667 157.808 14.5833 156.008 10.65H159.108L168.008 30.6C168.208 30.1 168.474 29.4667 168.808 28.7C169.174 27.9333 169.574 27.1 170.008 26.2C170.441 25.2667 170.858 24.3167 171.258 23.35C171.691 22.3833 172.091 21.45 172.458 20.55C172.824 19.6167 173.108 18.7833 173.308 18.05C173.541 17.2833 173.658 16.6667 173.658 16.2C173.658 15.7333 173.558 15.25 173.358 14.75C173.158 14.25 172.841 13.8667 172.408 13.6L174.258 10.65C174.724 10.8833 175.058 11.2333 175.258 11.7C175.458 12.1667 175.558 12.65 175.558 13.15C175.558 13.75 175.408 14.55 175.108 15.55C174.841 16.5167 174.474 17.5833 174.008 18.75C173.541 19.8833 173.024 21.0833 172.458 22.35C171.924 23.6167 171.374 24.8333 170.808 26C170.274 27.1333 169.774 28.2 169.308 29.2C168.841 30.1667 168.474 30.95 168.208 31.55C168.074 31.8833 167.874 32.4333 167.608 33.2C167.341 33.9333 167.024 34.75 166.658 35.65C166.291 36.5833 165.891 37.5333 165.458 38.5C165.024 39.5 164.541 40.4 164.008 41.2C163.508 42 162.974 42.65 162.408 43.15C161.874 43.6833 161.324 43.95 160.758 43.95C159.724 43.95 158.708 43.4667 157.708 42.5C156.741 41.5667 155.841 40.45 155.008 39.15C154.208 37.8833 153.508 36.5833 152.908 35.25C152.308 33.95 151.858 32.9167 151.558 32.15C150.158 32.9833 148.741 33.7167 147.308 34.35C145.874 34.95 144.308 35.25 142.608 35.25C141.708 35.25 140.774 35.1667 139.808 35C138.874 34.8 138.008 34.4833 137.208 34.05C136.441 33.5833 135.808 32.9833 135.308 32.25C134.841 31.5167 134.608 30.6 134.608 29.5Z" fill="black"/>
</g>
<defs>
<filter id="filter0_d_93_4381" x="-1" y="0.0500488" width="180.558" height="52.5499" filterUnits="userSpaceOnUse" color-interpolation-filters="sRGB">
<feFlood flood-opacity="0" result="BackgroundImageFix"/>
<feColorMatrix in="SourceAlpha" type="matrix" values="0 0 0 0 0 0 0 0 0 0 0 0 0 0 0 0 0 0 127 0" result="hardAlpha"/>
<feOffset dy="4"/>
<feGaussianBlur stdDeviation="2"/>
<feComposite in2="hardAlpha" operator="out"/>
<feColorMatrix type="matrix" values="0 0 0 0 0 0 0 0 0 0 0 0 0 0 0 0 0 0 0.25 0"/>
<feBlend mode="normal" in2="BackgroundImageFix" result="effect1_dropShadow_93_4381"/>
<feBlend mode="normal" in="SourceGraphic" in2="effect1_dropShadow_93_4381" result="shape"/>
</filter>
</defs>
</svg>
