<svg width="712" height="382" viewBox="0 0 712 382" fill="none" xmlns="http://www.w3.org/2000/svg">
<g filter="url(#filter0_d_93_4376)">
<path d="M10.9 0.199999C12.2333 0.199999 13.4667 0.566665 14.6 1.3C15.8 2.03333 16.7 3.03333 17.3 4.3L43.8 64.1L52.8 43.8C54 41.0667 55.2 38.3333 56.4 35.6C57.6667 32.8 58.8333 30.1667 59.9 27.7C61.0333 25.1667 62.0333 22.9 62.9 20.9C63.7667 18.8333 64.4667 17.1667 65 15.9C66.8 20.1 68.7667 24.6667 70.9 29.6C73.1 34.4667 75.2 39.1667 77.2 43.7C79.2667 48.1667 81.0667 52.1667 82.6 55.7C84.2 59.1667 85.3 61.6 85.9 63C86.0333 63.1333 86.1 63.2667 86.1 63.4C86.1667 63.5333 86.2333 63.6667 86.3 63.8C86.3 63.9333 86.3333 64.0333 86.4 64.1L93.2 48.7C94.2 46.5 95.2333 44.1667 96.3 41.7C97.4333 39.2333 98.5667 36.7333 99.7 34.2C100.833 31.6 101.933 29.0333 103 26.5C104.133 23.9667 105.2 21.5333 106.2 19.2C107.133 17.2 107.7 15.7333 107.9 14.8C108.1 13.8667 108.2 13.2333 108.2 12.9C108.2 12.8333 108.167 12.7333 108.1 12.6C108.1 12.4667 108.1 12.3667 108.1 12.3C108.1 10.9 107.9 9.73333 107.5 8.8C106.967 7.66666 106.2 6.8 105.2 6.2C105.4 6 105.633 5.56666 105.9 4.9C106.167 4.56666 106.4 4.16666 106.6 3.7C106.867 3.23333 107.133 2.8 107.4 2.39999C107.6 2.06666 107.767 1.76666 107.9 1.49999C108.033 1.23333 108.167 0.999998 108.3 0.799997L108.6 0.0999939C109.8 0.433331 110.767 1.2 111.5 2.39999C112.033 3.33333 112.3 4.66666 112.3 6.4V6.8C112.3 7.26667 112.267 7.66667 112.2 8C112.2 8.86666 111.433 10.9333 109.9 14.2C108.767 16.7333 107.533 19.4667 106.2 22.4C104.867 25.3333 103.533 28.3333 102.2 31.4L98.1 40.7C97.3667 42.2333 96.6667 43.7667 96 45.3C95.4 46.7667 94.7667 48.2333 94.1 49.7L85.2 70H82.5C81.4333 67.6667 80.4 65.3333 79.4 63C78.4 60.6667 77.3667 58.3667 76.3 56.1C75.4333 54.1667 74.5333 52.1667 73.6 50.1C72.7333 47.9667 71.8333 45.9 70.9 43.9C70.0333 41.8333 69.1667 39.8333 68.3 37.9C67.4333 35.9 66.6333 34.1 65.9 32.5C64.9667 30.5 64.2 28.8333 63.6 27.5C63 26.1 62.6 25.2 62.4 24.8L42.6 70H39.9L28 43.4C26.4 39.8 24.7667 36.1667 23.1 32.5C21.5 28.7667 19.9333 25.2 18.4 21.8C16.9333 18.4 15.5333 15.3 14.2 12.5C12.9333 9.63333 11.8667 7.26666 11 5.4C10.4667 4.13333 9.6 3.13333 8.4 2.39999C7.26667 1.66666 6 1.3 4.6 1.3V0.199999H10.9ZM109.663 47.6C109.596 47.4 109.563 47.0333 109.563 46.5V45.5C109.563 42.9667 109.963 40.4333 110.763 37.9C111.429 35.6333 112.463 33.4667 113.863 31.4C115.329 29.3333 117.163 27.5333 119.363 26C121.563 24.4 124.129 23.1667 127.063 22.3C129.996 21.3667 133.329 20.9 137.063 20.9C139.596 20.9 142.329 21.2667 145.263 22C148.196 22.7333 150.863 24.0333 153.263 25.9C155.729 27.7 157.629 30 158.963 32.8C160.296 35.5333 160.963 38.6333 160.963 42.1V43.5C160.963 44.1667 160.929 44.6667 160.863 45H115.863C116.129 49.2 116.963 52.8 118.363 55.8C119.829 58.7333 121.629 61.1333 123.763 63C125.896 64.8667 128.296 66.2333 130.963 67.1C133.629 67.9667 136.329 68.4 139.063 68.4C142.863 68.4 146.463 67.7 149.863 66.3C153.329 64.9 156.096 62.9667 158.163 60.5L159.063 61C158.596 61.6 158.063 62.2 157.463 62.8C156.929 63.3333 156.329 63.8667 155.663 64.4C153.929 65.8 151.429 67.1667 148.163 68.5C144.896 69.7667 140.963 70.4 136.363 70.4C132.229 70.4 128.563 69.7667 125.363 68.5C122.163 67.1667 119.429 65.4333 117.163 63.3C114.963 61.1667 113.229 58.7333 111.963 56C110.696 53.2667 109.929 50.4667 109.663 47.6ZM117.563 35.5C116.496 38.1 115.963 40.9 115.963 43.9H154.463C154.529 43.5667 154.563 43.1 154.563 42.5V41.2V40.1C154.563 38.2333 154.263 36.2333 153.663 34.1C153.063 31.9667 151.996 29.9667 150.463 28.1C148.863 26.3 146.896 24.8667 144.563 23.8C142.229 22.6667 139.496 22.1 136.363 22.1H135.763C133.629 22.1 131.629 22.4333 129.763 23.1C127.896 23.7667 126.163 24.7 124.563 25.9C123.029 27.1 121.663 28.5333 120.463 30.2C119.263 31.8 118.296 33.5667 117.563 35.5ZM151.584 0.399996C153.051 0.199995 154.418 0.0999939 155.684 0.0999939C158.484 0.0999939 161.151 0.566661 163.684 1.49999C166.151 2.43333 168.284 4 170.084 6.2C171.951 8.4 173.284 11.0333 174.084 14.1C174.884 17.1667 175.284 20.5 175.284 24.1V70H169.184V24.1C169.184 21.7 169.151 19.2333 169.084 16.7C169.018 14.1667 168.751 11.8667 168.284 9.79999C167.884 7.73333 167.151 6.03333 166.084 4.69999C165.084 3.36666 163.651 2.7 161.784 2.7C160.518 2.7 159.051 3.03333 157.384 3.7C155.718 4.3 153.784 5.33333 151.584 6.8V0.399996ZM183.486 45.8C183.486 42.5333 184.286 39.4 185.886 36.4C187.019 34.2 188.486 32.2 190.286 30.4C192.153 28.5333 194.253 26.9333 196.586 25.6C198.986 24.2 201.553 23.1333 204.286 22.4C207.086 21.6 209.986 21.2 212.986 21.2C216.653 21.2 219.653 21.5667 221.986 22.3C224.386 22.9667 226.253 23.7667 227.586 24.7C229.186 25.6333 230.419 26.8 231.286 28.2H224.686C224.153 27.1333 223.353 26.1667 222.286 25.3C221.353 24.5667 219.953 23.9333 218.086 23.4C216.286 22.8 213.886 22.5 210.886 22.5C208.019 22.5 205.319 23.0333 202.786 24.1C200.319 25.1 198.153 26.6 196.286 28.6C194.419 30.5333 192.919 32.8667 191.786 35.6C190.719 38.3333 190.186 41.4 190.186 44.8C190.186 48.7333 190.819 52.2 192.086 55.2C193.419 58.2 195.186 60.7333 197.386 62.8C199.586 64.8 202.086 66.3333 204.886 67.4C207.753 68.4667 210.719 69 213.786 69C215.119 69 216.553 68.8667 218.086 68.6C219.619 68.3333 221.119 67.9667 222.586 67.5C224.119 66.9667 225.519 66.3333 226.786 65.6C228.119 64.8667 229.219 64.0333 230.086 63.1L230.886 63.6C228.753 65.7333 226.019 67.4333 222.686 68.7C219.353 69.9 215.586 70.5 211.386 70.5C207.586 70.5 203.986 69.9333 200.586 68.8C197.253 67.6667 194.286 66.0667 191.686 64C189.153 61.8667 187.153 59.2667 185.686 56.2C184.219 53.1333 183.486 49.6667 183.486 45.8ZM235.927 46C235.927 42.6 236.627 39.4 238.027 36.4C239.027 34.2 240.327 32.2 241.927 30.4C243.594 28.5333 245.494 26.9333 247.627 25.6C249.761 24.2667 252.094 23.2333 254.627 22.5C257.161 21.7667 259.827 21.4 262.627 21.4C266.361 21.4 269.894 22.0667 273.227 23.4C276.627 24.6667 279.594 26.4 282.127 28.6C284.661 30.8 286.661 33.4 288.127 36.4C289.661 39.4 290.427 42.6 290.427 46C290.427 49.4 289.727 52.6 288.327 55.6C286.927 58.6 285.027 61.2333 282.627 63.5C280.227 65.7 277.394 67.4667 274.127 68.8C270.861 70.0667 267.361 70.7 263.627 70.7C259.894 70.7 256.327 70.0667 252.927 68.8C249.594 67.4667 246.661 65.7 244.127 63.5C241.594 61.2333 239.594 58.6 238.127 55.6C236.661 52.6 235.927 49.4 235.927 46ZM240.527 48.2C240.594 51.2667 241.327 54.3667 242.727 57.5C244.327 60.9667 246.761 63.6667 250.027 65.6C253.294 67.5333 256.927 68.5 260.927 68.5C264.727 68.5 268.427 67.6 272.027 65.8C276.294 63.6 279.627 60.5667 282.027 56.7C284.494 52.7667 285.727 48.5667 285.727 44.1C285.727 44.0333 285.694 43.2 285.627 41.6C285.627 40 284.961 37.6667 283.627 34.6C282.094 31.1333 279.627 28.4667 276.227 26.6C272.894 24.6667 269.227 23.7 265.227 23.7C263.361 23.7 261.461 23.9333 259.527 24.4C257.661 24.8 255.827 25.4667 254.027 26.4C249.627 28.6667 246.261 31.7333 243.927 35.6C241.661 39.4 240.527 43.4333 240.527 47.7V48.2ZM298.481 23.4H304.681V31.8C305.615 30.0667 306.881 28.4333 308.481 26.9C309.815 25.6333 311.548 24.5 313.681 23.5C315.881 22.5 318.681 22 322.081 22C323.948 22 325.815 22.2 327.681 22.6C329.615 23 331.381 23.6667 332.981 24.6C334.581 25.4667 335.981 26.6333 337.181 28.1C338.448 29.5 339.381 31.2333 339.981 33.3C340.315 32.5 340.848 31.4667 341.581 30.2C342.381 28.9333 343.481 27.7 344.881 26.5C346.348 25.3 348.148 24.2667 350.281 23.4C352.481 22.4667 355.115 22 358.181 22C360.515 22 362.848 22.2667 365.181 22.8C367.515 23.3333 369.581 24.2667 371.381 25.6C373.248 26.8667 374.748 28.5667 375.881 30.7C377.081 32.8333 377.681 35.5 377.681 38.7V70H371.481V38.2C371.481 35.8667 371.081 33.8333 370.281 32.1C369.481 30.3667 368.415 28.9333 367.081 27.8C365.748 26.6667 364.215 25.8333 362.481 25.3C360.748 24.7 358.981 24.4 357.181 24.4C355.248 24.4 353.348 24.7333 351.481 25.4C349.615 26 347.915 26.9 346.381 28.1C344.915 29.3 343.715 30.8 342.781 32.6C341.848 34.4 341.315 36.4667 341.181 38.8V70H334.981V38.6C334.981 36.2 334.581 34.1333 333.781 32.4C332.981 30.6 331.915 29.1333 330.581 28C329.248 26.8 327.715 25.9333 325.981 25.4C324.248 24.8 322.481 24.5 320.681 24.5C318.748 24.5 316.848 24.8 314.981 25.4C313.181 26 311.515 26.9 309.981 28.1C308.515 29.2333 307.281 30.7 306.281 32.5C305.348 34.2333 304.815 36.2667 304.681 38.6V70H298.481V23.4ZM385.444 47.6C385.377 47.4 385.344 47.0333 385.344 46.5V45.5C385.344 42.9667 385.744 40.4333 386.544 37.9C387.21 35.6333 388.244 33.4667 389.644 31.4C391.11 29.3333 392.944 27.5333 395.144 26C397.344 24.4 399.91 23.1667 402.844 22.3C405.777 21.3667 409.11 20.9 412.844 20.9C415.377 20.9 418.11 21.2667 421.044 22C423.977 22.7333 426.644 24.0333 429.044 25.9C431.51 27.7 433.41 30 434.744 32.8C436.077 35.5333 436.744 38.6333 436.744 42.1V43.5C436.744 44.1667 436.71 44.6667 436.644 45H391.644C391.91 49.2 392.744 52.8 394.144 55.8C395.61 58.7333 397.41 61.1333 399.544 63C401.677 64.8667 404.077 66.2333 406.744 67.1C409.41 67.9667 412.11 68.4 414.844 68.4C418.644 68.4 422.244 67.7 425.644 66.3C429.11 64.9 431.877 62.9667 433.944 60.5L434.844 61C434.377 61.6 433.844 62.2 433.244 62.8C432.71 63.3333 432.11 63.8667 431.444 64.4C429.71 65.8 427.21 67.1667 423.944 68.5C420.677 69.7667 416.744 70.4 412.144 70.4C408.01 70.4 404.344 69.7667 401.144 68.5C397.944 67.1667 395.21 65.4333 392.944 63.3C390.744 61.1667 389.01 58.7333 387.744 56C386.477 53.2667 385.71 50.4667 385.444 47.6ZM393.344 35.5C392.277 38.1 391.744 40.9 391.744 43.9H430.244C430.31 43.5667 430.344 43.1 430.344 42.5V41.2V40.1C430.344 38.2333 430.044 36.2333 429.444 34.1C428.844 31.9667 427.777 29.9667 426.244 28.1C424.644 26.3 422.677 24.8667 420.344 23.8C418.01 22.6667 415.277 22.1 412.144 22.1H411.544C409.41 22.1 407.41 22.4333 405.544 23.1C403.677 23.7667 401.944 24.7 400.344 25.9C398.81 27.1 397.444 28.5333 396.244 30.2C395.044 31.8 394.077 33.5667 393.344 35.5ZM481.029 23.5V11.6H487.129V23.5H495.929V24.6H487.129V62C487.129 64.9333 487.562 66.8667 488.429 67.8C489.296 68.6667 490.262 69.1 491.329 69.1C491.729 69.1 492.062 69.0667 492.329 69C492.662 68.9333 492.962 68.8667 493.229 68.8L494.029 68.5L494.529 69.1C494.396 69.3 493.862 69.5333 492.929 69.8C491.996 70 490.862 70.1 489.529 70.1C488.596 70.1 487.629 70 486.629 69.8C485.629 69.6 484.696 69.2333 483.829 68.7C483.029 68.1667 482.362 67.4333 481.829 66.5C481.296 65.5667 481.029 64.3667 481.029 62.9V24.6H477.029V23.5H481.029ZM497.939 46C497.939 42.6 498.639 39.4 500.039 36.4C501.039 34.2 502.339 32.2 503.939 30.4C505.606 28.5333 507.506 26.9333 509.639 25.6C511.772 24.2667 514.106 23.2333 516.639 22.5C519.172 21.7667 521.839 21.4 524.639 21.4C528.372 21.4 531.906 22.0667 535.239 23.4C538.639 24.6667 541.606 26.4 544.139 28.6C546.672 30.8 548.672 33.4 550.139 36.4C551.672 39.4 552.439 42.6 552.439 46C552.439 49.4 551.739 52.6 550.339 55.6C548.939 58.6 547.039 61.2333 544.639 63.5C542.239 65.7 539.406 67.4667 536.139 68.8C532.872 70.0667 529.372 70.7 525.639 70.7C521.906 70.7 518.339 70.0667 514.939 68.8C511.606 67.4667 508.672 65.7 506.139 63.5C503.606 61.2333 501.606 58.6 500.139 55.6C498.672 52.6 497.939 49.4 497.939 46ZM502.539 48.2C502.606 51.2667 503.339 54.3667 504.739 57.5C506.339 60.9667 508.772 63.6667 512.039 65.6C515.306 67.5333 518.939 68.5 522.939 68.5C526.739 68.5 530.439 67.6 534.039 65.8C538.306 63.6 541.639 60.5667 544.039 56.7C546.506 52.7667 547.739 48.5667 547.739 44.1C547.739 44.0333 547.706 43.2 547.639 41.6C547.639 40 546.972 37.6667 545.639 34.6C544.106 31.1333 541.639 28.4667 538.239 26.6C534.906 24.6667 531.239 23.7 527.239 23.7C525.372 23.7 523.472 23.9333 521.539 24.4C519.672 24.8 517.839 25.4667 516.039 26.4C511.639 28.6667 508.272 31.7333 505.939 35.6C503.672 39.4 502.539 43.4333 502.539 47.7V48.2ZM17 195.4H44.4C57.7333 195.4 68.5333 196.733 76.8 199.4C85.0667 201.933 91.4667 205.2 96 209.2C100.533 213.067 103.533 217.333 105 222C106.6 226.667 107.4 231.067 107.4 235.2C107.4 237.6 107.2 240.333 106.8 243.4C106.4 246.333 105.467 249.333 104 252.4C102.533 255.467 100.333 258.467 97.4 261.4C94.4667 264.333 90.4 266.933 85.2 269.2C80.1333 271.467 73.8 273.333 66.2 274.8C58.6 276.133 49.4 276.8 38.6 276.8H29.4V335H17V195.4ZM29.4 274.6H38.6C51.1333 274.6 61.1333 273.333 68.6 270.8C76.2 268.133 82 264.867 86 261C90.1333 257.133 92.8 252.867 94 248.2C95.3333 243.533 96 239.2 96 235.2C96 228.8 94.5333 223.267 91.6 218.6C88.8 213.8 84.9333 209.867 80 206.8C75.0667 203.733 69.3333 201.467 62.8 200C56.2667 198.4 49.3333 197.6 42 197.6H29.4V274.6ZM117.855 323.4C116.121 320.467 115.255 317 115.255 313C115.255 309.8 116.255 306.8 118.255 304C120.255 301.2 122.855 298.6 126.055 296.2C129.255 293.667 132.921 291.4 137.055 289.4C141.188 287.267 145.388 285.4 149.655 283.8C154.721 281.933 160.055 280.2 165.655 278.6C171.388 276.867 177.455 275.267 183.855 273.8C183.855 268.333 183.588 263.467 183.055 259.2C182.655 254.933 181.655 251.333 180.055 248.4C178.455 245.467 176.121 243.267 173.055 241.8C169.988 240.2 165.855 239.4 160.655 239.4C156.388 239.4 152.988 240.067 150.455 241.4C148.055 242.6 146.188 243.933 144.855 245.4C143.521 247.133 142.655 249.133 142.255 251.4H128.655C128.655 251.267 128.921 250.6 129.455 249.4C129.988 248.2 131.121 246.867 132.855 245.4C134.721 243.8 137.321 242.267 140.655 240.8C144.121 239.333 148.655 238.333 154.255 237.8C155.455 237.667 156.721 237.6 158.055 237.6C159.388 237.467 160.788 237.4 162.255 237.4C168.788 237.4 174.188 238.133 178.455 239.6C182.721 241.067 186.055 243.333 188.455 246.4C190.988 249.467 192.721 253.333 193.655 258C194.721 262.533 195.255 267.867 195.255 274L183.855 276.2C181.055 276.733 177.721 277.533 173.855 278.6C169.988 279.533 165.988 280.733 161.855 282.2C157.721 283.667 153.588 285.4 149.455 287.4C145.455 289.4 141.855 291.6 138.655 294C135.455 296.4 132.855 299.067 130.855 302C128.855 304.933 127.855 308.133 127.855 311.6C127.855 315.467 128.388 318.733 129.455 321.4C130.655 323.933 132.188 326 134.055 327.6C136.055 329.2 138.321 330.4 140.855 331.2C143.388 331.867 146.121 332.2 149.055 332.2C155.055 332.2 161.055 331.067 167.055 328.8C173.055 326.4 178.121 323.867 182.255 321.2C181.188 318.133 180.055 314.933 178.855 311.6C177.788 308.267 176.721 305.267 175.655 302.6L172.255 293L183.855 288.8L198.255 329.8C199.455 333.267 200.788 336.533 202.255 339.6C203.855 342.8 205.655 345.6 207.655 348C209.655 350.4 211.921 352.333 214.455 353.8C217.121 355.267 220.188 356 223.655 356C227.655 356 232.255 354.867 237.455 352.6C242.655 350.333 248.855 346.533 256.055 341.2V355.2C246.588 358.267 237.988 359.8 230.255 359.8C218.521 359.8 208.788 356.933 201.055 351.2C193.455 345.467 187.988 337.8 184.655 328.2L183.055 323.6C181.988 324.133 180.321 325.133 178.055 326.6C175.921 327.933 173.255 329.333 170.055 330.8C166.988 332.133 163.455 333.333 159.455 334.4C155.588 335.467 151.521 336 147.255 336C140.721 336 134.855 335 129.655 333C124.455 331 120.521 327.8 117.855 323.4ZM208.572 241.8H216.572V218.2H228.772V241.8H248.572C248.705 235.4 249.439 229.4 250.772 223.8C252.239 218.2 254.505 213.267 257.572 209C260.772 204.733 264.839 201.4 269.772 199C274.705 196.467 280.772 195.2 287.972 195.2H292.172C292.839 195.2 293.439 195.267 293.972 195.4C294.639 195.4 295.305 195.467 295.972 195.6V208.6C293.039 206.733 289.772 204.933 286.172 203.2C282.572 201.333 278.972 200.4 275.372 200.4C271.372 200.4 268.372 201.933 266.372 205C264.372 207.933 262.972 211.467 262.172 215.6C261.372 219.6 260.905 223.8 260.772 228.2C260.772 232.467 260.772 235.867 260.772 238.4V258.8C264.239 252 269.172 247.067 275.572 244C282.105 240.8 289.039 239.2 296.372 239.2C301.572 239.2 306.572 239.867 311.372 241.2C316.172 242.4 320.372 244.333 323.972 247C327.572 249.667 330.439 253.133 332.572 257.4C334.705 261.533 335.772 266.467 335.772 272.2V327C335.772 331.667 335.972 336.267 336.372 340.8C336.905 345.467 338.039 349.6 339.772 353.2C341.505 356.8 344.039 359.667 347.372 361.8C350.839 364.067 355.505 365.2 361.372 365.2C365.639 365.2 369.905 364.733 374.172 363.8C378.439 362.867 382.639 361.667 386.772 360.2L382.372 373.4C368.772 373.4 358.039 371.533 350.172 367.8C342.439 364.2 336.572 359.4 332.572 353.4C328.572 347.4 326.039 340.733 324.972 333.4C324.039 325.933 323.572 318.4 323.572 310.8C323.572 310.667 323.572 309.267 323.572 306.6C323.705 303.8 323.772 300.733 323.772 297.4C323.905 294.067 323.972 291 323.972 288.2C324.105 285.267 324.172 283.6 324.172 283.2C324.172 276.533 323.439 270.4 321.972 264.8C320.505 259.2 317.705 254.533 313.572 250.8C309.305 247.2 302.905 245.4 294.372 245.4C290.505 245.4 286.572 246 282.572 247.2C278.572 248.267 274.972 249.933 271.772 252.2C268.572 254.467 265.905 257.267 263.772 260.6C261.772 263.933 260.772 267.8 260.772 272.2V335H248.572V333.4C247.772 333.667 246.639 333.933 245.172 334.2C243.839 334.333 242.372 334.467 240.772 334.6C239.305 334.733 237.905 334.867 236.572 335C235.239 335 234.172 335 233.372 335C228.705 335 224.705 333.933 221.372 331.8C218.172 329.667 216.572 326 216.572 320.8V244H208.572V241.8ZM228.772 319C228.772 320.467 228.839 322 228.972 323.6C229.239 325.2 229.705 326.733 230.372 328.2C231.039 329.533 231.905 330.667 232.972 331.6C234.172 332.533 235.705 333 237.572 333C239.572 333 241.639 332.867 243.772 332.6C246.039 332.333 247.639 332 248.572 331.6V244H228.772V319ZM357.23 195.4C359.896 195.4 362.363 196.133 364.63 197.6C367.03 199.067 368.83 201.067 370.03 203.6L423.03 323.2L441.03 282.6C443.43 277.133 445.83 271.667 448.23 266.2C450.763 260.6 453.096 255.333 455.23 250.4C457.496 245.333 459.496 240.8 461.23 236.8C462.963 232.667 464.363 229.333 465.43 226.8C469.03 235.2 472.963 244.333 477.23 254.2C481.63 263.933 485.83 273.333 489.83 282.4C493.963 291.333 497.563 299.333 500.63 306.4C503.83 313.333 506.03 318.2 507.23 321C507.496 321.267 507.63 321.533 507.63 321.8C507.763 322.067 507.896 322.333 508.03 322.6C508.03 322.867 508.096 323.067 508.23 323.2L521.83 292.4C523.83 288 525.896 283.333 528.03 278.4C530.296 273.467 532.563 268.467 534.83 263.4C537.096 258.2 539.296 253.067 541.43 248C543.696 242.933 545.83 238.067 547.83 233.4C549.696 229.4 550.83 226.467 551.23 224.6C551.63 222.733 551.83 221.467 551.83 220.8C551.83 220.667 551.763 220.467 551.63 220.2C551.63 219.933 551.63 219.733 551.63 219.6C551.63 216.8 551.23 214.467 550.43 212.6C549.363 210.333 547.83 208.6 545.83 207.4C546.23 207 546.696 206.133 547.23 204.8C547.763 204.133 548.23 203.333 548.63 202.4C549.163 201.467 549.696 200.6 550.23 199.8C550.63 199.133 550.963 198.533 551.23 198C551.496 197.467 551.763 197 552.03 196.6L552.63 195.2C555.03 195.867 556.963 197.4 558.43 199.8C559.496 201.667 560.03 204.333 560.03 207.8V208.6C560.03 209.533 559.963 210.333 559.83 211C559.83 212.733 558.296 216.867 555.23 223.4C552.963 228.467 550.496 233.933 547.83 239.8C545.163 245.667 542.496 251.667 539.83 257.8L531.63 276.4C530.163 279.467 528.763 282.533 527.43 285.6C526.23 288.533 524.963 291.467 523.63 294.4L505.83 335H500.43C498.296 330.333 496.23 325.667 494.23 321C492.23 316.333 490.163 311.733 488.03 307.2C486.296 303.333 484.496 299.333 482.63 295.2C480.896 290.933 479.096 286.8 477.23 282.8C475.496 278.667 473.763 274.667 472.03 270.8C470.296 266.8 468.696 263.2 467.23 260C465.363 256 463.83 252.667 462.63 250C461.43 247.2 460.63 245.4 460.23 244.6L420.63 335H415.23L391.43 281.8C388.23 274.6 384.963 267.333 381.63 260C378.43 252.533 375.296 245.4 372.23 238.6C369.296 231.8 366.496 225.6 363.83 220C361.296 214.267 359.163 209.533 357.43 205.8C356.363 203.267 354.63 201.267 352.23 199.8C349.963 198.333 347.43 197.6 344.63 197.6V195.4H357.23ZM543.431 313C543.431 309 544.698 305.4 547.231 302.2C549.898 299 553.231 296.133 557.231 293.6C561.365 290.933 565.965 288.6 571.031 286.6C576.231 284.6 581.365 282.8 586.431 281.2C591.498 279.6 596.231 278.2 600.631 277C605.165 275.8 608.898 274.733 611.831 273.8C611.831 269.133 611.698 264.667 611.431 260.4C611.165 256.133 610.298 252.4 608.831 249.2C607.498 246 605.231 243.467 602.031 241.6C598.831 239.6 594.365 238.6 588.631 238.6C584.631 238.6 580.765 239.533 577.031 241.4C573.298 243.133 571.031 246.2 570.231 250.6H556.831C557.631 247.8 559.365 245.467 562.031 243.6C564.831 241.733 567.965 240.333 571.431 239.4C574.898 238.333 578.365 237.6 581.831 237.2C585.298 236.8 588.165 236.6 590.431 236.6C596.965 236.6 602.365 237.467 606.631 239.2C610.898 240.8 614.231 243.2 616.631 246.4C619.165 249.6 620.898 253.533 621.831 258.2C622.898 262.867 623.431 268.2 623.431 274.2C620.365 274.6 616.565 275.267 612.031 276.2C607.631 277.133 602.898 278.333 597.831 279.8C592.898 281.267 587.898 283 582.831 285C577.898 287 573.431 289.333 569.431 292C565.431 294.667 562.165 297.667 559.631 301C557.231 304.2 556.031 307.733 556.031 311.6C556.031 318.4 557.831 323.533 561.431 327C565.165 330.467 570.431 332.2 577.231 332.2C582.965 332.2 588.698 331.2 594.431 329.2C600.298 327.067 605.631 324.467 610.431 321.4L600.431 293.2L612.031 289C612.698 290.6 613.765 293.467 615.231 297.6C616.698 301.6 618.431 306.2 620.431 311.4C622.565 316.467 624.831 321.8 627.231 327.4C629.765 332.867 632.298 337.867 634.831 342.4C637.498 347.067 640.165 350.867 642.831 353.8C645.498 356.733 648.031 358.2 650.431 358.2C652.831 358.2 655.098 357.133 657.231 355C659.365 352.867 661.298 350.333 663.031 347.4C664.898 344.467 666.498 341.467 667.831 338.4C669.165 335.467 670.165 333.067 670.831 331.2C664.431 315.067 657.631 299.4 650.431 284.2C643.365 268.867 636.231 253.333 629.031 237.6H641.431L677.031 317.4C677.831 315.4 678.898 312.867 680.231 309.8C681.698 306.733 683.298 303.4 685.031 299.8C686.765 296.067 688.431 292.267 690.031 288.4C691.765 284.533 693.365 280.8 694.831 277.2C696.298 273.467 697.431 270.133 698.231 267.2C699.165 264.133 699.631 261.667 699.631 259.8C699.631 257.933 699.231 256 698.431 254C697.631 252 696.365 250.467 694.631 249.4L702.031 237.6C703.898 238.533 705.231 239.933 706.031 241.8C706.831 243.667 707.231 245.6 707.231 247.6C707.231 250 706.631 253.2 705.431 257.2C704.365 261.067 702.898 265.333 701.031 270C699.165 274.533 697.098 279.333 694.831 284.4C692.698 289.467 690.498 294.333 688.231 299C686.098 303.533 684.098 307.8 682.231 311.8C680.365 315.667 678.898 318.8 677.831 321.2C677.298 322.533 676.498 324.733 675.431 327.8C674.365 330.733 673.098 334 671.631 337.6C670.165 341.333 668.565 345.133 666.831 349C665.098 353 663.165 356.6 661.031 359.8C659.031 363 656.898 365.6 654.631 367.6C652.498 369.733 650.298 370.8 648.031 370.8C643.898 370.8 639.831 368.867 635.831 365C631.965 361.267 628.365 356.8 625.031 351.6C621.831 346.533 619.031 341.333 616.631 336C614.231 330.8 612.431 326.667 611.231 323.6C605.631 326.933 599.965 329.867 594.231 332.4C588.498 334.8 582.231 336 575.431 336C571.831 336 568.098 335.667 564.231 335C560.498 334.2 557.031 332.933 553.831 331.2C550.765 329.333 548.231 326.933 546.231 324C544.365 321.067 543.431 317.4 543.431 313Z" fill="white"/>
</g>
<defs>
<filter id="filter0_d_93_4376" x="0.599976" y="0.0999756" width="710.631" height="381.3" filterUnits="userSpaceOnUse" color-interpolation-filters="sRGB">
<feFlood flood-opacity="0" result="BackgroundImageFix"/>
<feColorMatrix in="SourceAlpha" type="matrix" values="0 0 0 0 0 0 0 0 0 0 0 0 0 0 0 0 0 0 127 0" result="hardAlpha"/>
<feOffset dy="4"/>
<feGaussianBlur stdDeviation="2"/>
<feComposite in2="hardAlpha" operator="out"/>
<feColorMatrix type="matrix" values="0 0 0 0 0 0 0 0 0 0 0 0 0 0 0 0 0 0 0.25 0"/>
<feBlend mode="normal" in2="BackgroundImageFix" result="effect1_dropShadow_93_4376"/>
<feBlend mode="normal" in="SourceGraphic" in2="effect1_dropShadow_93_4376" result="shape"/>
</filter>
</defs>
</svg>
